<mxfile host="app.diagrams.net" modified="2020-10-19T12:36:54.135Z" agent="5.0 (X11; Linux x86_64) AppleWebKit/537.36 (KHTML, like Gecko) Chrome/81.0.4044.113 Safari/537.36" etag="BHpfKj7Pk0cm12ujZmfM" version="13.6.6" type="github" pages="3">
  <diagram id="psrPV0lU4SVu1TLqQSxz" name="Page-1">
    <mxGraphModel dx="2100" dy="682" grid="1" gridSize="10" guides="1" tooltips="1" connect="1" arrows="1" fold="1" page="1" pageScale="1" pageWidth="827" pageHeight="1169" math="0" shadow="0">
      <root>
        <mxCell id="0" />
        <mxCell id="1" parent="0" />
        <mxCell id="s5h90HYdKSg7aflLZH8v-1" value="&lt;font style=&quot;font-size: 15px&quot;&gt;&lt;b&gt;ENEDIS&lt;/b&gt;&lt;/font&gt;" style="ellipse;shape=cloud;whiteSpace=wrap;html=1;fillColor=#ffff88;strokeColor=#36393d;" parent="1" vertex="1">
          <mxGeometry x="-10" y="190" width="110" height="70" as="geometry" />
        </mxCell>
        <mxCell id="s5h90HYdKSg7aflLZH8v-2" value="&lt;font style=&quot;font-size: 15px&quot;&gt;&lt;b&gt;METEO&lt;/b&gt;&lt;/font&gt;" style="ellipse;shape=cloud;whiteSpace=wrap;html=1;fillColor=#ffff88;strokeColor=#36393d;" parent="1" vertex="1">
          <mxGeometry x="-10" y="310" width="110" height="70" as="geometry" />
        </mxCell>
        <mxCell id="s5h90HYdKSg7aflLZH8v-4" value="&lt;font style=&quot;font-size: 15px&quot;&gt;&lt;b&gt;fichier Json&lt;/b&gt;&lt;/font&gt;" style="shape=note;whiteSpace=wrap;html=1;backgroundOutline=1;darkOpacity=0.05;fillColor=#d5e8d4;strokeColor=#82b366;" parent="1" vertex="1">
          <mxGeometry x="290" y="165" width="80" height="80" as="geometry" />
        </mxCell>
        <mxCell id="s5h90HYdKSg7aflLZH8v-8" value="&lt;font style=&quot;font-size: 15px&quot;&gt;&lt;b&gt;&lt;br&gt;Cassandra&lt;/b&gt;&lt;/font&gt;" style="shape=cylinder2;whiteSpace=wrap;html=1;boundedLbl=1;backgroundOutline=1;size=15;fillColor=#dae8fc;strokeColor=#6c8ebf;" parent="1" vertex="1">
          <mxGeometry x="290" y="320" width="80" height="77" as="geometry" />
        </mxCell>
        <mxCell id="s5h90HYdKSg7aflLZH8v-45" value="&lt;font style=&quot;font-size: 15px&quot;&gt;&lt;b&gt;PYSPARK&lt;/b&gt;&lt;/font&gt;" style="shape=hexagon;perimeter=hexagonPerimeter2;whiteSpace=wrap;html=1;fixedSize=1;fillColor=#ffe6cc;strokeColor=#d79b00;" parent="1" vertex="1">
          <mxGeometry x="820" y="170" width="120" height="70" as="geometry" />
        </mxCell>
        <mxCell id="mp7WMlb161kzaUCd3P_N-2" value="&lt;font style=&quot;font-size: 14px&quot;&gt;&lt;b&gt;fichier CSV&lt;/b&gt;&lt;br&gt;Résultat&lt;br&gt;d&#39;analyse&lt;/font&gt;" style="shape=note;whiteSpace=wrap;html=1;backgroundOutline=1;darkOpacity=0.05;fillColor=#d5e8d4;strokeColor=#82b366;" parent="1" vertex="1">
          <mxGeometry x="980" y="210" width="80" height="80" as="geometry" />
        </mxCell>
        <mxCell id="mp7WMlb161kzaUCd3P_N-12" value="&lt;div&gt;&lt;b style=&quot;font-size: 15px&quot;&gt;MongoDB&lt;/b&gt;&lt;/div&gt;" style="shape=datastore;whiteSpace=wrap;html=1;fillColor=#dae8fc;strokeColor=#6c8ebf;align=center;" parent="1" vertex="1">
          <mxGeometry x="630" y="220" width="110" height="100" as="geometry" />
        </mxCell>
        <mxCell id="mp7WMlb161kzaUCd3P_N-13" value="&lt;font style=&quot;font-size: 15px&quot;&gt;&lt;b&gt;&lt;br&gt;Tableau Online&lt;/b&gt;&lt;br&gt;Présentation graphique&lt;/font&gt;" style="shape=internalStorage;whiteSpace=wrap;html=1;backgroundOutline=1;fillColor=#ffcccc;strokeColor=#36393d;" parent="1" vertex="1">
          <mxGeometry x="980" y="340" width="125" height="100" as="geometry" />
        </mxCell>
        <mxCell id="mp7WMlb161kzaUCd3P_N-16" value="" style="edgeStyle=elbowEdgeStyle;elbow=horizontal;endArrow=classic;html=1;exitX=1;exitY=0.5;exitDx=0;exitDy=0;entryX=0;entryY=0.5;entryDx=0;entryDy=0;entryPerimeter=0;" parent="1" source="s5h90HYdKSg7aflLZH8v-45" target="mp7WMlb161kzaUCd3P_N-2" edge="1">
          <mxGeometry width="50" height="50" relative="1" as="geometry">
            <mxPoint x="1027" y="220" as="sourcePoint" />
            <mxPoint x="920" y="305" as="targetPoint" />
            <Array as="points">
              <mxPoint x="960" y="200" />
              <mxPoint x="920" y="285" />
            </Array>
          </mxGeometry>
        </mxCell>
        <mxCell id="mp7WMlb161kzaUCd3P_N-17" value="" style="edgeStyle=elbowEdgeStyle;elbow=vertical;endArrow=classic;html=1;exitX=0.5;exitY=0;exitDx=0;exitDy=0;entryX=0.5;entryY=1;entryDx=0;entryDy=0;entryPerimeter=0;" parent="1" source="mp7WMlb161kzaUCd3P_N-13" target="mp7WMlb161kzaUCd3P_N-2" edge="1">
          <mxGeometry width="50" height="50" relative="1" as="geometry">
            <mxPoint x="1040" y="405" as="sourcePoint" />
            <mxPoint x="1120" y="310" as="targetPoint" />
          </mxGeometry>
        </mxCell>
        <mxCell id="mp7WMlb161kzaUCd3P_N-26" value="" style="edgeStyle=elbowEdgeStyle;elbow=horizontal;endArrow=classic;html=1;entryX=0;entryY=0.5;entryDx=0;entryDy=0;entryPerimeter=0;exitX=1;exitY=0.5;exitDx=0;exitDy=0;" parent="1" source="mp7WMlb161kzaUCd3P_N-29" target="s5h90HYdKSg7aflLZH8v-4" edge="1">
          <mxGeometry width="50" height="50" relative="1" as="geometry">
            <mxPoint x="620" y="400" as="sourcePoint" />
            <mxPoint x="670" y="350" as="targetPoint" />
            <Array as="points">
              <mxPoint x="250" y="230" />
              <mxPoint x="350" y="200" />
            </Array>
          </mxGeometry>
        </mxCell>
        <mxCell id="mp7WMlb161kzaUCd3P_N-27" value="" style="edgeStyle=elbowEdgeStyle;elbow=horizontal;endArrow=classic;html=1;entryX=-0.008;entryY=0.95;entryDx=0;entryDy=0;entryPerimeter=0;exitX=1.047;exitY=0.553;exitDx=0;exitDy=0;exitPerimeter=0;" parent="1" source="s5h90HYdKSg7aflLZH8v-8" target="mp7WMlb161kzaUCd3P_N-37" edge="1">
          <mxGeometry width="50" height="50" relative="1" as="geometry">
            <mxPoint x="322.96000000000004" y="292.98" as="sourcePoint" />
            <mxPoint x="425" y="345" as="targetPoint" />
            <Array as="points">
              <mxPoint x="400" y="370" />
            </Array>
          </mxGeometry>
        </mxCell>
        <mxCell id="mp7WMlb161kzaUCd3P_N-28" value="" style="edgeStyle=elbowEdgeStyle;elbow=horizontal;endArrow=classic;html=1;exitX=0.875;exitY=0.5;exitDx=0;exitDy=0;exitPerimeter=0;" parent="1" source="s5h90HYdKSg7aflLZH8v-2" edge="1">
          <mxGeometry width="50" height="50" relative="1" as="geometry">
            <mxPoint x="620" y="400" as="sourcePoint" />
            <mxPoint x="180" y="285" as="targetPoint" />
            <Array as="points">
              <mxPoint x="150" y="360" />
            </Array>
          </mxGeometry>
        </mxCell>
        <mxCell id="mp7WMlb161kzaUCd3P_N-29" value="&lt;div&gt;&lt;span&gt;&lt;font style=&quot;font-size: 13px&quot;&gt;&lt;b&gt;&amp;nbsp; Script&amp;nbsp; &amp;nbsp;Python&lt;/b&gt;&lt;/font&gt;&lt;/span&gt;&lt;/div&gt;" style="triangle;whiteSpace=wrap;html=1;align=left;fillColor=#ffe6cc;strokeColor=#d79b00;" parent="1" vertex="1">
          <mxGeometry x="170" y="245" width="70" height="80" as="geometry" />
        </mxCell>
        <mxCell id="mp7WMlb161kzaUCd3P_N-30" value="" style="edgeStyle=elbowEdgeStyle;elbow=horizontal;endArrow=classic;html=1;entryX=0;entryY=0.5;entryDx=0;entryDy=0;exitX=0.875;exitY=0.5;exitDx=0;exitDy=0;exitPerimeter=0;" parent="1" source="s5h90HYdKSg7aflLZH8v-1" target="mp7WMlb161kzaUCd3P_N-29" edge="1">
          <mxGeometry width="50" height="50" relative="1" as="geometry">
            <mxPoint x="360" y="190" as="sourcePoint" />
            <mxPoint x="435" y="225" as="targetPoint" />
            <Array as="points">
              <mxPoint x="146" y="220" />
              <mxPoint x="240" y="180" />
            </Array>
          </mxGeometry>
        </mxCell>
        <mxCell id="mp7WMlb161kzaUCd3P_N-32" value="" style="edgeStyle=elbowEdgeStyle;elbow=horizontal;endArrow=classic;html=1;entryX=-0.037;entryY=0.545;entryDx=0;entryDy=0;entryPerimeter=0;exitX=1;exitY=0.5;exitDx=0;exitDy=0;" parent="1" source="mp7WMlb161kzaUCd3P_N-29" target="s5h90HYdKSg7aflLZH8v-8" edge="1">
          <mxGeometry width="50" height="50" relative="1" as="geometry">
            <mxPoint x="250" y="295" as="sourcePoint" />
            <mxPoint x="435" y="225" as="targetPoint" />
            <Array as="points">
              <mxPoint x="250" y="340" />
            </Array>
          </mxGeometry>
        </mxCell>
        <mxCell id="mp7WMlb161kzaUCd3P_N-33" value="" style="edgeStyle=elbowEdgeStyle;elbow=horizontal;endArrow=classic;html=1;exitX=1;exitY=0.475;exitDx=0;exitDy=0;exitPerimeter=0;entryX=0.008;entryY=0.025;entryDx=0;entryDy=0;entryPerimeter=0;" parent="1" source="s5h90HYdKSg7aflLZH8v-4" target="mp7WMlb161kzaUCd3P_N-37" edge="1">
          <mxGeometry width="50" height="50" relative="1" as="geometry">
            <mxPoint x="620" y="400" as="sourcePoint" />
            <mxPoint x="580" y="280" as="targetPoint" />
          </mxGeometry>
        </mxCell>
        <mxCell id="mp7WMlb161kzaUCd3P_N-37" value="&lt;b&gt;TALEND&lt;/b&gt;" style="shape=step;perimeter=stepPerimeter;whiteSpace=wrap;html=1;fixedSize=1;fillColor=#ffe6cc;strokeColor=#d79b00;" parent="1" vertex="1">
          <mxGeometry x="440" y="230" width="120" height="80" as="geometry" />
        </mxCell>
        <mxCell id="mp7WMlb161kzaUCd3P_N-38" value="" style="endArrow=classic;html=1;exitX=1;exitY=0.5;exitDx=0;exitDy=0;entryX=0;entryY=0.5;entryDx=0;entryDy=0;" parent="1" source="mp7WMlb161kzaUCd3P_N-37" target="mp7WMlb161kzaUCd3P_N-12" edge="1">
          <mxGeometry width="50" height="50" relative="1" as="geometry">
            <mxPoint x="670" y="400" as="sourcePoint" />
            <mxPoint x="720" y="350" as="targetPoint" />
          </mxGeometry>
        </mxCell>
        <mxCell id="mp7WMlb161kzaUCd3P_N-40" value="" style="edgeStyle=elbowEdgeStyle;elbow=horizontal;endArrow=classic;html=1;exitX=0;exitY=0.5;exitDx=0;exitDy=0;" parent="1" source="s5h90HYdKSg7aflLZH8v-45" target="mp7WMlb161kzaUCd3P_N-12" edge="1">
          <mxGeometry width="50" height="50" relative="1" as="geometry">
            <mxPoint x="670" y="400" as="sourcePoint" />
            <mxPoint x="720" y="350" as="targetPoint" />
          </mxGeometry>
        </mxCell>
        <mxCell id="mp7WMlb161kzaUCd3P_N-41" value="&lt;font style=&quot;font-size: 14px&quot;&gt;&lt;span style=&quot;font-size: 14px&quot;&gt;&lt;b&gt;fichier CSV&lt;/b&gt;&lt;br&gt;&lt;/span&gt;Données brutes&lt;/font&gt;" style="shape=note;whiteSpace=wrap;html=1;backgroundOutline=1;darkOpacity=0.05;fillColor=#d5e8d4;strokeColor=#82b366;" parent="1" vertex="1">
          <mxGeometry x="820" y="305" width="80" height="80" as="geometry" />
        </mxCell>
        <mxCell id="mp7WMlb161kzaUCd3P_N-42" value="" style="edgeStyle=elbowEdgeStyle;elbow=horizontal;endArrow=classic;html=1;entryX=1;entryY=0.5;entryDx=0;entryDy=0;" parent="1" source="mp7WMlb161kzaUCd3P_N-41" target="mp7WMlb161kzaUCd3P_N-12" edge="1">
          <mxGeometry width="50" height="50" relative="1" as="geometry">
            <mxPoint x="590" y="400" as="sourcePoint" />
            <mxPoint x="750" y="280" as="targetPoint" />
          </mxGeometry>
        </mxCell>
        <mxCell id="mp7WMlb161kzaUCd3P_N-43" value="" style="edgeStyle=elbowEdgeStyle;elbow=horizontal;endArrow=classic;html=1;exitX=-0.024;exitY=0.38;exitDx=0;exitDy=0;exitPerimeter=0;entryX=1;entryY=0.5;entryDx=0;entryDy=0;entryPerimeter=0;" parent="1" source="mp7WMlb161kzaUCd3P_N-13" target="mp7WMlb161kzaUCd3P_N-41" edge="1">
          <mxGeometry width="50" height="50" relative="1" as="geometry">
            <mxPoint x="870" y="450" as="sourcePoint" />
            <mxPoint x="740" y="280" as="targetPoint" />
            <Array as="points">
              <mxPoint x="930" y="360" />
            </Array>
          </mxGeometry>
        </mxCell>
        <mxCell id="mp7WMlb161kzaUCd3P_N-52" value="&lt;table border=&quot;1&quot; width=&quot;100%&quot; cellpadding=&quot;4&quot; style=&quot;width: 100% ; height: 100% ; border-collapse: collapse ; font-size: 14px&quot;&gt;&lt;tbody&gt;&lt;tr style=&quot;background-color: #a7c942 ; color: #ffffff ; border: 1px solid #98bf21&quot;&gt;&lt;th align=&quot;left&quot;&gt;&lt;font color=&quot;#330000&quot; style=&quot;font-size: 14px&quot;&gt;SGBD&lt;/font&gt;&lt;/th&gt;&lt;th align=&quot;left&quot;&gt;&lt;font color=&quot;#330000&quot; style=&quot;font-size: 14px&quot;&gt;Keyspace / DBS&lt;/font&gt;&lt;/th&gt;&lt;th align=&quot;left&quot;&gt;&lt;font color=&quot;#330000&quot; style=&quot;font-size: 14px&quot;&gt;Table / Collection&lt;/font&gt;&lt;/th&gt;&lt;/tr&gt;&lt;tr style=&quot;border: 1px solid #98bf21&quot;&gt;&lt;td&gt;&lt;font color=&quot;#330000&quot; style=&quot;font-size: 14px&quot;&gt;Cassandra&lt;/font&gt;&lt;/td&gt;&lt;td&gt;&lt;font color=&quot;#330000&quot; style=&quot;font-size: 14px&quot;&gt;meteofrancedb&lt;br&gt;&lt;/font&gt;&lt;/td&gt;&lt;td&gt;&lt;font color=&quot;#330000&quot; style=&quot;font-size: 14px&quot;&gt;meteofrance&lt;/font&gt;&lt;/td&gt;&lt;/tr&gt;&lt;tr style=&quot;background-color: #eaf2d3 ; border: 1px solid #98bf21&quot;&gt;&lt;td&gt;&lt;font color=&quot;#330000&quot; style=&quot;font-size: 14px&quot;&gt;MongoDB&lt;/font&gt;&lt;/td&gt;&lt;td&gt;&lt;font color=&quot;#330000&quot; style=&quot;font-size: 14px&quot;&gt;DB_projet&lt;/font&gt;&lt;/td&gt;&lt;td&gt;&lt;font color=&quot;#330000&quot; style=&quot;font-size: 14px&quot;&gt;meteo_enedis&lt;/font&gt;&lt;/td&gt;&lt;/tr&gt;&lt;tr style=&quot;border: 1px solid #98bf21&quot;&gt;&lt;td&gt;&lt;font color=&quot;#330000&quot; style=&quot;font-size: 14px&quot;&gt;&lt;br&gt;&lt;/font&gt;&lt;/td&gt;&lt;td&gt;&lt;font color=&quot;#330000&quot; style=&quot;font-size: 14px&quot;&gt;&lt;br&gt;&lt;/font&gt;&lt;/td&gt;&lt;td&gt;&lt;font color=&quot;#330000&quot; style=&quot;font-size: 14px&quot;&gt;&lt;br&gt;&lt;/font&gt;&lt;/td&gt;&lt;/tr&gt;&lt;tr style=&quot;background-color: #eaf2d3 ; border: 1px solid #98bf21&quot;&gt;&lt;td&gt;&lt;font color=&quot;#330000&quot; style=&quot;font-size: 14px&quot;&gt;&lt;br&gt;&lt;/font&gt;&lt;/td&gt;&lt;td&gt;&lt;font color=&quot;#330000&quot; style=&quot;font-size: 14px&quot;&gt;&lt;br&gt;&lt;/font&gt;&lt;/td&gt;&lt;td&gt;&lt;font color=&quot;#330000&quot; style=&quot;font-size: 14px&quot;&gt;&lt;br&gt;&lt;/font&gt;&lt;/td&gt;&lt;/tr&gt;&lt;/tbody&gt;&lt;/table&gt;" style="text;html=1;strokeColor=#c0c0c0;fillColor=#ffffff;overflow=fill;rounded=0;strokeWidth=1;" parent="1" vertex="1">
          <mxGeometry x="20" y="420" width="445" height="140" as="geometry" />
        </mxCell>
      </root>
    </mxGraphModel>
  </diagram>
  <diagram name="Copy of Page-1" id="NRlVAfDEjT8OY-k_ogjY">
    <mxGraphModel dx="2100" dy="682" grid="1" gridSize="10" guides="1" tooltips="1" connect="1" arrows="1" fold="1" page="1" pageScale="1" pageWidth="827" pageHeight="1169" math="0" shadow="0">
      <root>
        <mxCell id="pfybVDLBMsBgwP_tp2P8-0" />
        <mxCell id="pfybVDLBMsBgwP_tp2P8-1" parent="pfybVDLBMsBgwP_tp2P8-0" />
        <mxCell id="pfybVDLBMsBgwP_tp2P8-10" value="" style="edgeStyle=elbowEdgeStyle;elbow=horizontal;endArrow=classic;html=1;entryX=0;entryY=0.5;entryDx=0;entryDy=0;exitX=1;exitY=0.75;exitDx=0;exitDy=0;" edge="1" parent="pfybVDLBMsBgwP_tp2P8-1" source="kVaDs-3yjSdPvA0udan9-0" target="qeE38PUvePnLX5kn3w1Q-13">
          <mxGeometry width="50" height="50" relative="1" as="geometry">
            <mxPoint x="1013.04" y="160" as="sourcePoint" />
            <mxPoint x="1050" y="230" as="targetPoint" />
            <Array as="points">
              <mxPoint x="1020" y="200" />
              <mxPoint x="980" y="285" />
            </Array>
          </mxGeometry>
        </mxCell>
        <mxCell id="pfybVDLBMsBgwP_tp2P8-11" value="" style="edgeStyle=elbowEdgeStyle;elbow=vertical;endArrow=classic;html=1;exitX=0.431;exitY=-0.015;exitDx=0;exitDy=0;entryX=0.5;entryY=1;entryDx=0;entryDy=0;exitPerimeter=0;" edge="1" parent="pfybVDLBMsBgwP_tp2P8-1" source="qeE38PUvePnLX5kn3w1Q-5" target="qeE38PUvePnLX5kn3w1Q-13">
          <mxGeometry width="50" height="50" relative="1" as="geometry">
            <mxPoint x="1102.5" y="340" as="sourcePoint" />
            <mxPoint x="1090" y="270" as="targetPoint" />
          </mxGeometry>
        </mxCell>
        <mxCell id="pfybVDLBMsBgwP_tp2P8-12" value="" style="edgeStyle=elbowEdgeStyle;elbow=horizontal;endArrow=classic;html=1;entryX=0;entryY=0.5;entryDx=0;entryDy=0;exitX=1;exitY=0.5;exitDx=0;exitDy=0;" edge="1" parent="pfybVDLBMsBgwP_tp2P8-1" source="qeE38PUvePnLX5kn3w1Q-6" target="qeE38PUvePnLX5kn3w1Q-4">
          <mxGeometry width="50" height="50" relative="1" as="geometry">
            <mxPoint x="193" y="270" as="sourcePoint" />
            <mxPoint x="240" y="205" as="targetPoint" />
            <Array as="points">
              <mxPoint x="193" y="230" />
              <mxPoint x="293" y="200" />
            </Array>
          </mxGeometry>
        </mxCell>
        <mxCell id="pfybVDLBMsBgwP_tp2P8-13" value="" style="edgeStyle=elbowEdgeStyle;elbow=horizontal;endArrow=classic;html=1;exitX=1;exitY=0.5;exitDx=0;exitDy=0;exitPerimeter=0;entryX=0;entryY=1;entryDx=0;entryDy=0;" edge="1" parent="pfybVDLBMsBgwP_tp2P8-1" source="qeE38PUvePnLX5kn3w1Q-2" target="qeE38PUvePnLX5kn3w1Q-0">
          <mxGeometry width="50" height="50" relative="1" as="geometry">
            <mxPoint x="373.7600000000002" y="362.581" as="sourcePoint" />
            <mxPoint x="439" y="300" as="targetPoint" />
            <Array as="points">
              <mxPoint x="400" y="370" />
            </Array>
          </mxGeometry>
        </mxCell>
        <mxCell id="pfybVDLBMsBgwP_tp2P8-14" value="" style="edgeStyle=elbowEdgeStyle;elbow=horizontal;endArrow=classic;html=1;entryX=0;entryY=0.5;entryDx=0;entryDy=0;exitX=1;exitY=0.5;exitDx=0;exitDy=0;" edge="1" parent="pfybVDLBMsBgwP_tp2P8-1" source="p2A8RIQz4fnvw_S5B1Di-6" target="qeE38PUvePnLX5kn3w1Q-6">
          <mxGeometry width="50" height="50" relative="1" as="geometry">
            <mxPoint x="10" y="345" as="sourcePoint" />
            <mxPoint x="70" y="285" as="targetPoint" />
            <Array as="points">
              <mxPoint x="50" y="330" />
              <mxPoint x="73" y="360" />
            </Array>
          </mxGeometry>
        </mxCell>
        <mxCell id="pfybVDLBMsBgwP_tp2P8-16" value="" style="edgeStyle=elbowEdgeStyle;elbow=horizontal;endArrow=classic;html=1;entryX=0;entryY=0.5;entryDx=0;entryDy=0;exitX=1;exitY=0.5;exitDx=0;exitDy=0;" edge="1" parent="pfybVDLBMsBgwP_tp2P8-1" source="p2A8RIQz4fnvw_S5B1Di-5" target="qeE38PUvePnLX5kn3w1Q-6">
          <mxGeometry width="50" height="50" relative="1" as="geometry">
            <mxPoint x="10" y="225" as="sourcePoint" />
            <mxPoint x="78" y="285" as="targetPoint" />
            <Array as="points">
              <mxPoint x="49" y="240" />
              <mxPoint x="172" y="180" />
            </Array>
          </mxGeometry>
        </mxCell>
        <mxCell id="pfybVDLBMsBgwP_tp2P8-17" value="" style="edgeStyle=elbowEdgeStyle;elbow=horizontal;endArrow=classic;html=1;entryX=0;entryY=0.5;entryDx=0;entryDy=0;exitX=1;exitY=0.75;exitDx=0;exitDy=0;" edge="1" parent="pfybVDLBMsBgwP_tp2P8-1" source="qeE38PUvePnLX5kn3w1Q-6" target="qeE38PUvePnLX5kn3w1Q-2">
          <mxGeometry width="50" height="50" relative="1" as="geometry">
            <mxPoint x="183" y="285" as="sourcePoint" />
            <mxPoint x="230.03999999999996" y="361.96500000000003" as="targetPoint" />
            <Array as="points">
              <mxPoint x="193" y="340" />
            </Array>
          </mxGeometry>
        </mxCell>
        <mxCell id="pfybVDLBMsBgwP_tp2P8-18" value="" style="edgeStyle=elbowEdgeStyle;elbow=horizontal;endArrow=classic;html=1;exitX=1;exitY=0.5;exitDx=0;exitDy=0;entryX=0;entryY=0;entryDx=0;entryDy=0;" edge="1" parent="pfybVDLBMsBgwP_tp2P8-1" source="qeE38PUvePnLX5kn3w1Q-4" target="qeE38PUvePnLX5kn3w1Q-0">
          <mxGeometry width="50" height="50" relative="1" as="geometry">
            <mxPoint x="313" y="203" as="sourcePoint" />
            <mxPoint x="440.96000000000004" y="232" as="targetPoint" />
          </mxGeometry>
        </mxCell>
        <mxCell id="pfybVDLBMsBgwP_tp2P8-20" value="" style="endArrow=classic;html=1;exitX=1;exitY=0.5;exitDx=0;exitDy=0;entryX=0;entryY=0.5;entryDx=0;entryDy=0;" edge="1" parent="pfybVDLBMsBgwP_tp2P8-1" source="qeE38PUvePnLX5kn3w1Q-0" target="cdEc45cNSyttt-at6stf-1">
          <mxGeometry width="50" height="50" relative="1" as="geometry">
            <mxPoint x="620" y="270" as="sourcePoint" />
            <mxPoint x="690" y="270" as="targetPoint" />
          </mxGeometry>
        </mxCell>
        <mxCell id="pfybVDLBMsBgwP_tp2P8-21" value="" style="edgeStyle=elbowEdgeStyle;elbow=horizontal;endArrow=classic;html=1;exitX=0;exitY=0.75;exitDx=0;exitDy=0;entryX=1;entryY=0.5;entryDx=0;entryDy=0;" edge="1" parent="pfybVDLBMsBgwP_tp2P8-1" source="kVaDs-3yjSdPvA0udan9-0" target="cdEc45cNSyttt-at6stf-1">
          <mxGeometry width="50" height="50" relative="1" as="geometry">
            <mxPoint x="960" y="150" as="sourcePoint" />
            <mxPoint x="800" y="260" as="targetPoint" />
            <Array as="points">
              <mxPoint x="830" y="220" />
            </Array>
          </mxGeometry>
        </mxCell>
        <mxCell id="pfybVDLBMsBgwP_tp2P8-23" value="" style="edgeStyle=elbowEdgeStyle;elbow=horizontal;endArrow=classic;html=1;entryX=1;entryY=0.5;entryDx=0;entryDy=0;exitX=0;exitY=0.5;exitDx=0;exitDy=0;" edge="1" parent="pfybVDLBMsBgwP_tp2P8-1" source="qeE38PUvePnLX5kn3w1Q-10" target="cdEc45cNSyttt-at6stf-1">
          <mxGeometry width="50" height="50" relative="1" as="geometry">
            <mxPoint x="880" y="345" as="sourcePoint" />
            <mxPoint x="800" y="270" as="targetPoint" />
            <Array as="points">
              <mxPoint x="830" y="300" />
              <mxPoint x="840" y="290" />
            </Array>
          </mxGeometry>
        </mxCell>
        <mxCell id="pfybVDLBMsBgwP_tp2P8-24" value="" style="edgeStyle=elbowEdgeStyle;elbow=horizontal;endArrow=classic;html=1;entryX=1;entryY=0.5;entryDx=0;entryDy=0;exitX=-0.038;exitY=0.408;exitDx=0;exitDy=0;exitPerimeter=0;" edge="1" parent="pfybVDLBMsBgwP_tp2P8-1" source="qeE38PUvePnLX5kn3w1Q-5" target="qeE38PUvePnLX5kn3w1Q-10">
          <mxGeometry width="50" height="50" relative="1" as="geometry">
            <mxPoint x="1030" y="400" as="sourcePoint" />
            <mxPoint x="950" y="347" as="targetPoint" />
            <Array as="points">
              <mxPoint x="980" y="362" />
            </Array>
          </mxGeometry>
        </mxCell>
        <mxCell id="kVaDs-3yjSdPvA0udan9-0" value="" style="shape=image;verticalLabelPosition=bottom;labelBackgroundColor=#ffffff;verticalAlign=top;aspect=fixed;imageAspect=0;image=https://upload.wikimedia.org/wikipedia/commons/thumb/f/f3/Apache_Spark_logo.svg/langfr-220px-Apache_Spark_logo.svg.png;imageBorder=#FF9933;" vertex="1" parent="pfybVDLBMsBgwP_tp2P8-1">
          <mxGeometry x="850" y="159" width="153.04" height="80" as="geometry" />
        </mxCell>
        <mxCell id="cdEc45cNSyttt-at6stf-1" value="" style="shape=image;verticalLabelPosition=bottom;labelBackgroundColor=#ffffff;verticalAlign=top;aspect=fixed;imageAspect=0;image=https://framalibre.org/sites/default/files/leslogos/mongodb-logo.jpg;imageBorder=#FF9933;" vertex="1" parent="pfybVDLBMsBgwP_tp2P8-1">
          <mxGeometry x="650" y="217.12" width="146.66" height="110" as="geometry" />
        </mxCell>
        <mxCell id="qeE38PUvePnLX5kn3w1Q-0" value="" style="shape=image;verticalLabelPosition=bottom;labelBackgroundColor=#ffffff;verticalAlign=top;aspect=fixed;imageAspect=0;image=https://upload.wikimedia.org/wikipedia/commons/8/87/Logo_talend.jpg;imageBorder=#FF9933;" vertex="1" parent="pfybVDLBMsBgwP_tp2P8-1">
          <mxGeometry x="440" y="239" width="175.71" height="66.23" as="geometry" />
        </mxCell>
        <mxCell id="qeE38PUvePnLX5kn3w1Q-2" value="" style="shape=image;verticalLabelPosition=bottom;labelBackgroundColor=#ffffff;verticalAlign=top;aspect=fixed;imageAspect=0;image=data:image/jpeg,/9j/4AAQSkZJRgABAQAAAQABAAD/2wCEAAkGBxMSERUSEhMWFRUWGBoWGRcXGBobHBgeFRgXFxgaGBsdHSggHxolGxgXIjIiJSorLy4uGh8zODMtNygtLisBCgoKDg0OGhAQGy0mHR0rKzErLSstListLS43MDAxLSs3KzUrLTcwNzUrNy01KysvKys3LSszKystKy0rKysrK//AABEIAJUBUwMBIgACEQEDEQH/xAAcAAEAAgMBAQEAAAAAAAAAAAAABgcDBAUCAQj/xABLEAACAQMCBAQDBQQFCAkFAQABAgMABBESIQUGMUETUWFxByKBFDJCUpEjYnKhFYKxstEzQ1OSosHC8Bc0RIOTw9LT4SRzo7PxFv/EABkBAQEBAQEBAAAAAAAAAAAAAAABAwQCBf/EACwRAQACAQMCBQMDBQAAAAAAAAABAgMRITEEQRITUbHwYdHhcZHxFCIyQoH/2gAMAwEAAhEDEQA/ALcpSleUKUpQKUpQKUpQKUpQKUpQKUpQKUpQKUpQKUpQKUpQKUpQKUpQKUpQKUpQKUpQKUpQKUpQKUpQKUpQKUpQKUpQKUpQKUpQKUpQKUpQKUpQKUpQKUpQKUNcXivNlnbhvEuI9SgnQrBnPoFGTk1R2ga8rICurO2M57Y659sVTMPxKlFnPDpPjyNIUlBGEEzM59dSlm09unlu5u+IZubYWtvG0SMoWUsRlhjBRcZwh7nqRtgb5Kt254giRo+f8oUWMdNTSY0Dz75PkAT2radwoJJAAGSTsAB1J8hVC80c6TXVxHLHmFICDCmQdJH427Fj0x0A27nOG851vJpI2mk1pG6v4WAsbFCCNYXBYZHcmho/QCNkAjvvWs18vjCAHL6dbD8idAzeWptgO+GP4TVT3/xYuXTTFDHEx/HkuR7AgDPvmtjlvni1s7ZmPjXF3MfElYjGpsYCl2P3FGwwD3wN8UFqzzhSq/ic4A9tyfYDf9B1IrBxbiSW8et8kkhERfvSO2yog7sT9BuTgAmoJwbm1I4n4jfSKZpspBboQWSJD0Vc7anGWduulPQV74RfM0yX/ENppPksrRd2UPsWVTvk5wXOMDJOBgALBg1aRrxq746AnsPMDpnvR5gGVfxNnA9Fxk+wyBnzYedaXGeMR2kBnuGACjou5Zj0RAepP/ycCtbl2KXQ1zc/LNNhinaGMZKRZ9ASWPdmbsABEdeaUIpZiAoGST2ApLIFGWOBsPqSAB7kkDHrUMt+Kf0nd/sziwtGDu52E8qfMgyf82hGv1IU9CK2uD8T/pC6aZDiztSVQ9BNKRvIf3EUnHq+rqBiqlE8wQZPmAPUscAD3JrJUZ4Hffbrhrlf+qwFo4PKWTGmSb+EAlF/ic+0lqIUrDBdK7OqnOg6WI6BsZ05/MAQSO2RWagUpSgUpSgUpSgUpSgUpSgUpSgUpSgUpSgUpSgUpSgUpX2g+UqIc0fEK2tMon7eYbaEI0qf336D2GT6Cq+u+IcS4qcElIW6IuUTHsMs/wBcj2qxGpxysjjvP9lbZXxPGcfghw2/kWyFHtnPpUD4t8VLqXK28aQjsf8AKP75I0j/AFTXQ4V8OI0GqdtWBkjoNtz8oP8AaT7VFVhXJIUDJzgbAZ7ADsK3xdPN5cvUdXTFHrMuff313c/5eWSTPZ3On6J0H0FY7bgkr/cVmx10IzYz06Cu/JH+zSQDbeNsdmjxgfWMxn1OryqfcM4zFwu2hhuQ3iyBpNMaFiAzbeJ5Htv+UjtWl8NKVieZljj6nJkvNdoiO/srG45dEB03DN4mM+DHpLgHoZDkrH575PpWp/Q5PzfdXOOurHfdsDfr2qWXyKtx9q8MC3mlaTbcMHY+IrEdJMFsjsemRg10hy+yxX8J+ZoTFKh/Mo8X5h7oT9du1aVw44iJsyt1Wa0zWnbX9Z21j9+yCf0PsDvgkjOe4wT29R+tfDwof8mrE4vy2+LG1QfOyyFz2Ukxs7H0XOPXAFR26tg88iQLlEyAfJY/lLsegBxqJPnWlMeG0cMMmbqKTvPp7aovLwsjcbjuNs/Q11v/APHMwYxTKxRijqylSjDqrYLb/wBtd/gHLk04Ewj1RKSTuAZNGSVUHrkjTnpk+hrxyleul8rE7zEpL21E5ZSR5iT9AzVjlwU38Hbl04OrybeZ/twiF1y9cxb+GT3yh1fyHzfyrNy3x9rO6+0tH4zhWXEjEEFsDVqwTkDI9iau27so3G6DPn0P6iuDxPliKUbgN/GM49mG4rn8v0dvndpcHgF59sm/pLic0aQwn9jEThdQ7qucnBHqzEDsAK1+aedvt7G3ST7Naf5yRvvyjyCDJwfyjr+LyrR4xyIUy0R0+jbqfZxuPrmole2MkLaZEKntnofYjY14msw1raJ4TE8Se+0cM4ehgtV++zfeZRu0kxHRep053PU+XYluRd6OD8MJW2QYnuB+Jc/Pg99Rzv8AiJ/LnNbpfyCJoVcrG33lXA1/xkbsPQnHpUo4Lz81nB4NtaxIepd2Zyx82A0/215el0W0EVtAqLpjiiXGScBQvdif1JNQbivOMt7MLLhZI1bPckH5VH3jGPL949e3UNVdcQ45c38irc3ICk/i+WJPXSoxnyJ39asLgfHOGcMh8OGQ3Mz/AHvBUs0h7AHZQPTP0NBOOHWUVnbrGpCxxKSWY+7O7se5OWJPcmti0nMi68EKfu5GCR+Yg9M+XXHXc4Eb4ZaXF6yz3oEcSkNFaqcjI3V5j+Nh1A+6NjjO9SqohSlKBSlKBSlKBSlKBSlKBSlKBSlKBSlKBSlKBSlRbnPnaGwXQMSTkZWMHZfJpD2Hp1P8wHb4zxiG0jMs7hF6DuWPko6k+1VRxrm+94m5gtFaKHoQDhmB/wBI46A/kX1+9XzhHLd5xab7TduwTsTtt10xr+Ff5n66qseDhUNqixQoFAGT5nP/AD/jmvda6zo83t4Y1Qzl3kGOLDz/ADsO3Yew6f2/SpnbxKuAoAHp/vr1X0GumKxHDjtebTu9cQXMUgHUow/VTVPiroqoeJ2hhmkiP4GIHt1U/VcH610dLPMOLr4/xl2+QLbxLoqwDR6RI4PZomBiYfvAsw9Qxz0rDx29/wDq5HuYw6SEMuGwfDxiNopBsRpwe6k52z03ORJdK3jDqtuWH01H/CvHKF7cRFU8W3aA7aJ50DR56mE/MR/Awx5YrzaZrktaI10escRfFSkzpM6zxttOmku9ypwyJlbwJlntpNpIZR8yHGx221dB0GRuCcCpfb2yoAFHRVTJ3JVM6QT1OMnr5nzrX4bOG1ASxSY6eHgEDtqwx39dvat2uLJebS+nhxRSsfPv7vEsQOezFSoYdRny+oB+gqHca4A/hi0tEWGDYySOd5G/Cu2WbHXpgnAGMVNK0+JBwuqKLxXwQB4mjGfykggH1pjvNZ2M2Kt43V/fcZk4cgs7WVJHVi0sjpkRlwP2cahvvA/MSxOC3rheRyypkvYskk6y5J7lQzkn6isXGrVom0tbG37/ADNI5bufnZiG37iux8PrTVM8vZFx9XP+Ab9a+hFIpjm3eeXx7ZLZM1adqztCeSdDWtWxKdq165avoX5DXM4hwSOUEaRv1UjKn3H+FdOletNXmJmOFccwfD4r88J0A76XJKb/AJX6j2OfpUbHKd3/AKIY89aY/vVvfEPmH7XcaEbMEI0IAflZh9+THfJ2B8gPM1scicQijYKLh7WXPUsDDLv0cMCqntvp9GBNccvoxwycK+G9zKRrIVf3QT/M4H9tWPyzyRb2nzBdcn5m3P6/7gAPSpBZSOyAyAau+nOD6jc7Hyyfc1noFKUqIUpSgUpSgUpSgUpSgUpSgUpSgUpSgUpSgUpUe5hluZj9mtf2ef8AKT90B/DGPzEfiPTtk9A4/OvOxiY2liPFuTszAZEXn6F/fZe/lWlyl8PMN9oviZJCdWkknc75Ynct6n/5qU8tcqwWa/IuXPVzuSfPP/Ppiu7VV8RABgDAHYVzeIj5/cV06wXsGpduo6f4V6xzpZllrrVyaUpXU4mxE21RHnzhJIFyg6DTJ7fhb6dD9PKpQjYNZyAwwQCDsQehz1BpW00t4oW9IyU8MuRyHwmEWolGHaZWVydxgMQUx0wMb+f6VGeauEWttc41MEKh/CTdhkkY1NsqnGc7nrtXrjPBrmyZ5rGaRI2OplXDBSO7IwIIxgahvgYJ2zW2OEi8uYLwLmGcB5cnIjaJQro3p8oA7de21eqTNbzaZ2nVlkrW2KMda/3Rp/P1jX8pBytOEiQtHHbpMwWGJcl32LFnY7sdKk9BhQSe2JGGBzg9Nj6bA7/Qj9armPmQPdTXzbpChit06ZMh+X21BGZvTA7Csa8xPFbW7liXkuHnkPmqPpI9jg4/grO2C9p19W1erx0r4fT76e/H0WS8qqVBIBY6Vz3OCcD1wCcehqH8yXUM7NCZWtbmPZSzFVcdQC6nBQ5yCcEZ6dRWhzTxLXPdW2dtMcsRHZ4kWTb+JMj3A86jl5xJrpEWQF50+VHAy0in8DgdSOob3z1zXvD087W+fPVl1PVxOtI+fn0IuI3ULmJy0wYgNBOzSqxOMaSSSp8mQ43zg1YnB+Gpbx6EUrk6yC2rBbG2rAyBsAfSuNyry14GJZgDLj5V6iMH/i/sqSSPimWa66V/C4K2iviyf815iP1eJm7VipSpD3M6lQj4hc0iJTawt+1YYkYH/Jqfw5/Ow/Qe4r5zfzysYaG1YNJ0aQbqnnp7M38h69KhvKXFoYLnXdLrjfIdvvOpJzr3yTv17nPcjBxvftDoxYu8uGKk3K1pFHIrX0WLeYALMQGVCfult8Kpzgk7jbtmrPu+SrG7jEkYUhwGWRMfMD0IZcE/UmtbgvAZLMG2lAuLRidORl4i3UD8yHqRgHPQNnFYul3OD8AFqMQSMI+ujUSv0DFgB/Dp967dcXh1g1mAkZL2/ZD1i9E/c/d6Dtpxg9lGBGR0qI+0pSgUpSgUpSgUpSgUpSgUpSgUpSgUpSgUpSg+PnBxjPbNcKTmm3hOi41W5z1dT4ZP/wBxQVBPXDaW8xXerBdWaSDDqD29f1oNSDmGzcZS6t29pk/9VJeYLRfvXVuvvNGP+KuTd8hWUhJ8JQT+6P8Adg1pf9Gdn+Uf/k/9yiuxLznw9et5Cf4W1f3c1qt8QuGj/tI+kcp/4K0v+jWz/KP9v/3KxS/DC0PQY9jJ/wCs1Rvtzdw2XdbuNW/eDID76lFbNvOkg1Ruki/mRlYfqpIqmea+BrbXjW0LGUgLsPmIZhnTsNyBg/Wtq15LvBG06jQUUt8rNq+UZPzKMA4Hn+le65JhlfDFt1wV6R8VTXCucL9SFSRpvJHXxCfqPn/nUmT4gSxYF1Zsme6krn2Vx/xVrGSssZw3jhYyODWGOyjCSxhcJKCHVSQDqGliMdCR3FRK1+INk33mkj9HQn+5qFdWHm2zPS6i/rNp/vYptPEppaOYcK85ImBPhSIy5yAxKn64BGfWsDcoXbaQfDwo0j5+gyW7DzYn61L05htj0uID7Sp/jR+YrUdbiAf98n+Nb/1F3LPR4/q4UXJ0juJJpgCAg/Zgk/s1VF+ZsYOFHY1IuF8Ghtx+yTB6Fjux+vl6DArQm5xsl/7TF/VbX/dzXJvPiLZqPlMknoiY/vlaztlmeZbUwVrOta7pi8vlWEnNVtffExzkQwKvk0jFv9lcf21HeI8dvrlSzvKY/JFKp6g6RuP4iaz8yscNvJvblZ3GubLW2yGk1uP83Hhmz5HfC/Uiq+4zzZc3ziGP9kjkKEU7tqOAHfbI9BgeYNavJXAY72ZoGco2jUmCADpPzDdTvgg49DXvmPli44fIrndQwZJANgQQV1Dsc4/52rO2SZbUxVqwWHLchuktZsxNJkI2xUsASoznBBIx1zkgbZrucoW32HiQt7xNIlBjDdBkkFCDtsT8vuwzVlrBBxSzimIwXUOrD70br1wfzK4I+lOM8vLfW3hXIAlXYSLt8w6OvkD1x2yRv38NHTseFrAT4XyqTkr2z548/Xqe5OMVug5rg8q8QlINrdf9ZhABbtMnRZV9egYdj6MM9+ogBXxVA6V9pQKUpQKUpQKUpQKUpQKUpQKUpQKUpQKUpQKUpQKUpQKUpQK5/F7qRUKwY8U7BmGVTP4iBux8kH3j5DJHQr5pGc0EZ5d5Pigy75eRyWdnOWYk5Jdu+++Bge9bPOGtrZreDZ5h4eeyIdnbA74OkAdWYdgSO9Xjwhq1d/8A+j/ef1PnQR7lnlGG1jC6ct3z3P7x7n+Q7CtX4kpbx8PlMiLqYBIwAATI33ceeN29galxON6jtxwX7VcLNNnTHtGnZM9T6ynbLfhACjfUSVU/D+R55LeSdvk0IzhSN/lUt8xJ+XIHTc79q5lnwRntJrtjpSPSF/eLOq/pk49wfI1fXHrcmzmiiwpaJ4122BkBQE+gJyfY1X3PVp4VtZ8MgHzSHW3oIxgavTJLH1Q1RD+U+V5L5yFOlV6tjO/kMkDbqT6jzr1w3lOWS+ayf5XTJbA6gYIIztuGBzV1cq8EW0t1jUb43Pfz39c5J9TWrd8NC8VguQPvwSxMfVCjp/Iv/qigrTm74fvZweOjF0UgODgkajgHYDbJA6d+tRqbhkkcUV0F1xP0JG2pGKsj/UEZ7jyq++cIw1hdg/6CU/ojEfzFRz4b8NSbhAimXUjtJsfIt1H9tBDeYuS1+zJfWWXhdQ5TclQeuOp2OQRv0PtVich20MnDrZtIOYwCfVSVYfqDWnyBE1rJc8MlOrwj40RP4opSQdvRhv6sa7XBOHC0kkhT/IyMZox+RjjxYx6Zw4/ifyoIrzjy0LSROJ2i4aBg8qD8SdHI9dJYH0JqdXEEVzDpYB4pFB9CGGQR9DWy6BgVYZBBBB7g7EGuByTlLdrYnJtJXt/6ikPDn/unjojkcqWzcNumsXJME5Mls57MBl4j6lRqH8J86m9afFuHLPHoJ0kEMjjqjqcqw9QQKy2MxdAXGlx8rgdAw64/dPUehFQY7+xEhVx8siHKN5eYPmpGxFbELkgEjB7jyP8AhXulApSlApSlApSlAr7ivEsgVSx6KCT9BmqQ+GytPxSGR2LFBJISxJP3GXqfVxVF40pSoFKUoFKUoFKUoFKUoFKUoFKUoFKUoFKUoFKUoFAKUoBGdqh3ArL7Tfz3zj5QRFDn8kfQj+JtT+xXzqV3ikowXIJGMjqM7Ej1xnHrillbCNAigAAdB0+np2HoBQZqj/OHMMFkkckuWcMTHGv3n+VkPsoD7k+nU7VIaojme4a+4s0ZJwZltk/dVX8PI+upvrVV0OOc/wB/cW0/h2yiBkZGZY5H0hhpOZMhc7+QqxPh7EycNtvETw28PJXyyTgnPQlcEjtnFZ+N8MX7NHaxLoQvGoA6BY2EmD6EoAf4q4nxW4qYLJYYzgzt4fsijL/r8q+zGgj3NfPqfbYJLGPxZI9cGsglZBLj5UVfmYB1Qg5HTbIOax3fxB4lAyi5to0z8wV4pEJxtlSX9cdD1rNyJwFf6PkuyoMjyx6D3VYZ4zt5Eupz/CK4nxW4oJr91U5WBBF6agSz/wA20/1aC1bfmJRw9b6ceGpjEhUHV944VVzjJOVx71W1rzvfPc3M1naApJ4bMPDklwUXRkshABKhc+wqb828Akl4UttCMvEkRC/m8IAFR64zj1Aqu+SOcX4e7RSIWhZvnXGHjbYErn2GVPl27ha3C+OMbEXd3H4GFZ3Xc4AJAIBGcsMEL13AqCv8Q76d3azswUXr+zklbG+NZQgA47fzNTTmu0+38NkW3YN4ipJGez6WWQDfpnGN+h61VfJ/NcvDZHjeMtGzftIyNLqw2JXPRsdQeuB060FvcqcTmubZZZ4fBckjTuMgHAbDbqDvsc++9cPm/wCIMVm5hiTxph94ZwiHyY7kt+6PqRXT47zIicOe9gYMCn7M4/E50LkeYY7j0Iqv/hJwcT3MlxKNXg4K6t8ySFjqOepAUn3YHtQbF3z7xWJRLLaxxxscAvDKoOckDJfrgH9Km/IvMMl/A0skax6ZDGNJJDYVWJ3G27Yxv0qIfGfiYPgWwOSCZm9Niifrl/5VIfh0PA4SkjbbSyn2DOR/sqKDkWHxElmv0t/Dijh8R1ZiWJ0xhyW1ZAGy56GtPj3xTfWVs40MYOPElDHV7KCNI9znHYVBOXOGvdXMUCsQZDhmHULgmQ/6ur36d6sn4pQRW3DobeJAq+KoUDsFRyT6sTjJ75NBI+RuYzf23iuoWRHMbhc6SQFYFc74IYbeea53OXP8VkxhjXxZh94Zwked/mPUtjfSPqRXL+Hk32Xg9xddTqlkA89CKij6sp/Wov8ADXhgu7/XN84jDTNq31uWAXV5/Mxb+rQdLiHOnFDbyNLahYZEZNYhlUL4ilQwYsR32zsafBi2zczyfkiC/wDiPn/y6knxd4mI7IQZ+edwMd9MZDsfbIQfWtP4L2+Le4k7tKqf+GgP/mGg+8f5+niv/sccUelZY4yzamLB9BOACAp+Yjv0rX5s+JjxTNDZojhDpaRwzBiNiEVSNgds537diYNzPctJxGd486vtDBMdco+hMevyire5c5JtbaGNXhjkmXS7SMoJ1jB+UncKD0A8vOg3eN8xR2dustzszAYjXdmbALKuewPc7CoMvP8AxK4Ja0sgUHcRyS492UqM+mK4HNVy/EeK+EGOnxRbp+6qtpdh9dTfp5VanHrmPh/D5DGAixx6I1/eYaU9zqOSfc0EW5L+IFxd3MdvJDF8+ol01LpCqWzgls7gDqOtWNVN/Bu2zeu/ZISPq7oB/INVyUJKUpUQpSlApSlApSlApSlApSlApSlApSlApSlB9qgeY7eSx4k7EYKzePGT0Ya/EX3HY+oNX7WC8sopl0yxpIvk6hh+hFVVa3fxMmuNMNnanx22BLayCfyqAAcfmbAGMkV7+L1pL9ns5H3KZSQjprdUOfYlG/lVjWVhFCMQxRxg9kRVz+grLPCrqUdQynYqwBB9wdjQUzy7zdcraLw61g1zEuFcHJAdixOjGAQWPzE4GxNcC+4UYb0W0jBmEkaufMyaC253O7EZ79a/QFlYRQjEMUcYPUIiqD+gFef6Mg8Qy+DF4hwS+hdRwABlsZ6AD6UNUe515xPD5YQYPEjkDEtq0kFSMBdiCcHODiq25x41FxGeI21s6ykFW6F5ScaRpXOcYO/kfIVeFzbpIpSRFdT1VgGB+h2rDZcMghz4MMceeuhFXPvgUELuuMycFs7KF4fFyHEhDYCNkPpU4IJ+dseYQ1DOduY4eIvF4Fs6zfdLbF3z91Aq51b9Cd+3erunhV1Kuqsp6qwBB9wdq17LhcEJzDBFGT1KIqn9QKCB8V4BLDy/4LDMiYmdRvpBl1sP6qnf2NRHkvnB7FZY0hErSldAyRhhkdACWzkbDB29avWtS04VBExaKCKNj1ZI1Un6gUFE83WFxHIkt2f29wplZT+EZ0qp8jgdOwwKsu7mEPLwOetoi/WZVX+16lt1w6GRg8kMbsuys6KxHfAJG1ZJ7ZHXQ6Ky7fKygjbpsdtqCqvgxY6p558bIgjB7ZkOpvqAg/1vWs3xquD4ltH2CyP/AKxQD+6f1q0oolUaVUKB2UAD9BWC64dDKwaSGORl2UuisR32JG1BEOG8NZ+XxFGMs9uzgD8RZjLgep6VXHJ3NB4fK8gjEgdNBUtp3BBBzg987Y71fyqAMAYA6Adq1Bwm3EhlEEXiHcv4a6s+erGc0FLc3RXU0a392NBlfw4o8Y0oqluh3Az0zudz3FWF8KyE4YH7a5XP9U4/sWpXe2MUwAmiSQA6gHUMAcYyMjY4J3rItugXQEUJjGkABcHqMdMUFFfD+3+08ThZhnDNO/ppy4J/r6avoVit7ZIxhEVB5KoUfyFZKD8+yXD2PEmdly0M7MVJxqGonr21Kcg+oNd3mO/uuJwSXTx+DaQDUi7nW7MEGCQNR+b7wGAMjqTVtXXC4JWDyQxSMOjOisR7EjNZ57ZHQxuishGCrAFSB2IO2KCsvgnGM3bekS//ALT/AIVaNYbW0jiGmNEQeSKFH6AVmohSlKgUpSgUpSgUpSgUpSgUpSgUpSgUpSgUpSgUpSgUpSgUpSgUpSgUpSgUpSgUpSgUpSgUpSgUpSgUpSgUpSgUpSgUpSg//9k=;imageBorder=#FF9933;" vertex="1" parent="pfybVDLBMsBgwP_tp2P8-1">
          <mxGeometry x="230" y="320" width="149" height="65.49" as="geometry" />
        </mxCell>
        <mxCell id="qeE38PUvePnLX5kn3w1Q-4" value="" style="shape=image;verticalLabelPosition=bottom;labelBackgroundColor=#ffffff;verticalAlign=top;aspect=fixed;imageAspect=0;image=https://png.pngtree.com/png-clipart/20190630/original/pngtree-json-file-document-icon-png-image_4166451.jpg;imageBorder=#FF9933;" vertex="1" parent="pfybVDLBMsBgwP_tp2P8-1">
          <mxGeometry x="244.5" y="150" width="120" height="120" as="geometry" />
        </mxCell>
        <mxCell id="qeE38PUvePnLX5kn3w1Q-5" value="" style="shape=image;verticalLabelPosition=bottom;labelBackgroundColor=#ffffff;verticalAlign=top;aspect=fixed;imageAspect=0;image=https://brockdsl.github.io/Tableau-Online-Tutorial/tableau-logo.jpg;imageBorder=#FF9933;" vertex="1" parent="pfybVDLBMsBgwP_tp2P8-1">
          <mxGeometry x="1003.04" y="320" width="130" height="130" as="geometry" />
        </mxCell>
        <mxCell id="qeE38PUvePnLX5kn3w1Q-6" value="" style="shape=image;verticalLabelPosition=bottom;labelBackgroundColor=#ffffff;verticalAlign=top;aspect=fixed;imageAspect=0;image=https://abstract-technology.fr/media/technology/python-logo.png/@@images/image.png;imageBorder=#FF9933;" vertex="1" parent="pfybVDLBMsBgwP_tp2P8-1">
          <mxGeometry x="60" y="252.26" width="121.86" height="52.97" as="geometry" />
        </mxCell>
        <mxCell id="qeE38PUvePnLX5kn3w1Q-10" value="" style="shape=image;verticalLabelPosition=bottom;labelBackgroundColor=#ffffff;verticalAlign=top;aspect=fixed;imageAspect=0;image=https://www.icone-png.com/png/52/52351.png;imageBorder=#FF9933;" vertex="1" parent="pfybVDLBMsBgwP_tp2P8-1">
          <mxGeometry x="860" y="290" width="80" height="80" as="geometry" />
        </mxCell>
        <mxCell id="qeE38PUvePnLX5kn3w1Q-13" value="" style="shape=image;verticalLabelPosition=bottom;labelBackgroundColor=#ffffff;verticalAlign=top;aspect=fixed;imageAspect=0;image=https://www.icone-png.com/png/52/52351.png;imageBorder=#FF9933;" vertex="1" parent="pfybVDLBMsBgwP_tp2P8-1">
          <mxGeometry x="1050" y="210" width="70.49" height="70.49" as="geometry" />
        </mxCell>
        <mxCell id="p2A8RIQz4fnvw_S5B1Di-5" value="" style="shape=image;verticalLabelPosition=bottom;labelBackgroundColor=#ffffff;verticalAlign=top;aspect=fixed;imageAspect=0;image=https://www1.ac-nancy-metz.fr/dsden54/contpeda/docs/arts/images/musees.png;imageBorder=#FF9933;" vertex="1" parent="pfybVDLBMsBgwP_tp2P8-1">
          <mxGeometry x="-60" y="153.99999999999997" width="80" height="80" as="geometry" />
        </mxCell>
        <mxCell id="lv6_d41KhN6Rbw9ttiRx-3" value="" style="edgeStyle=orthogonalEdgeStyle;rounded=0;orthogonalLoop=1;jettySize=auto;html=1;" edge="1" parent="pfybVDLBMsBgwP_tp2P8-1" source="p2A8RIQz4fnvw_S5B1Di-6" target="lv6_d41KhN6Rbw9ttiRx-2">
          <mxGeometry relative="1" as="geometry" />
        </mxCell>
        <mxCell id="p2A8RIQz4fnvw_S5B1Di-6" value="" style="shape=image;verticalLabelPosition=bottom;labelBackgroundColor=#ffffff;verticalAlign=top;aspect=fixed;imageAspect=0;image=https://www1.ac-nancy-metz.fr/dsden54/contpeda/docs/arts/images/musees.png;imageBorder=#FF9933;" vertex="1" parent="pfybVDLBMsBgwP_tp2P8-1">
          <mxGeometry x="-60" y="315" width="80" height="80" as="geometry" />
        </mxCell>
        <mxCell id="lv6_d41KhN6Rbw9ttiRx-2" value="&lt;b style=&quot;font-size: 15px ; background-color: rgb(248 , 249 , 250)&quot;&gt;METEO&lt;/b&gt;" style="whiteSpace=wrap;html=1;verticalAlign=top;labelBackgroundColor=#ffffff;fillColor=#cce5ff;strokeColor=#36393d;" vertex="1" parent="pfybVDLBMsBgwP_tp2P8-1">
          <mxGeometry x="-55" y="395" width="70" height="30" as="geometry" />
        </mxCell>
        <mxCell id="lv6_d41KhN6Rbw9ttiRx-5" value="&lt;b style=&quot;font-size: 15px ; background-color: rgb(248 , 249 , 250)&quot;&gt;ENEDIS&lt;/b&gt;" style="whiteSpace=wrap;html=1;verticalAlign=top;labelBackgroundColor=#ffffff;fillColor=#cce5ff;strokeColor=#36393d;" vertex="1" parent="pfybVDLBMsBgwP_tp2P8-1">
          <mxGeometry x="-55" y="235" width="70" height="30" as="geometry" />
        </mxCell>
      </root>
    </mxGraphModel>
  </diagram>
  <diagram id="GwVf5I0lQCT_HpdQ1XN2" name="Page-2">
    <mxGraphModel dx="1273" dy="682" grid="1" gridSize="10" guides="1" tooltips="1" connect="1" arrows="1" fold="1" page="1" pageScale="1" pageWidth="827" pageHeight="1169" math="0" shadow="0">
      <root>
        <mxCell id="vg__A0DAl4VuC1T9xqZp-0" />
        <mxCell id="vg__A0DAl4VuC1T9xqZp-1" parent="vg__A0DAl4VuC1T9xqZp-0" />
        <mxCell id="QW_eaBVYOSWrY8zdSHgz-0" value="" style="shape=image;verticalLabelPosition=bottom;labelBackgroundColor=#ffffff;verticalAlign=top;aspect=fixed;imageAspect=0;image=https://upload.wikimedia.org/wikipedia/commons/thumb/f/f3/Apache_Spark_logo.svg/langfr-220px-Apache_Spark_logo.svg.png;" vertex="1" parent="vg__A0DAl4VuC1T9xqZp-1">
          <mxGeometry x="540" y="320" width="153.04" height="80" as="geometry" />
        </mxCell>
        <mxCell id="QW_eaBVYOSWrY8zdSHgz-1" value="" style="shape=image;verticalLabelPosition=bottom;labelBackgroundColor=#ffffff;verticalAlign=top;aspect=fixed;imageAspect=0;image=https://framalibre.org/sites/default/files/leslogos/mongodb-logo.jpg;" vertex="1" parent="vg__A0DAl4VuC1T9xqZp-1">
          <mxGeometry x="270" y="420" width="146.66" height="110" as="geometry" />
        </mxCell>
      </root>
    </mxGraphModel>
  </diagram>
</mxfile>
